<?xml version="1.0" standalone="no"?>
<!DOCTYPE svg PUBLIC "-//W3C//DTD SVG 20010904//EN"
 "http://www.w3.org/TR/2001/REC-SVG-20010904/DTD/svg10.dtd">
<svg version="1.0" xmlns="http://www.w3.org/2000/svg"
 width="300.000000pt" height="697.000000pt" viewBox="0 0 300.000000 697.000000"
 preserveAspectRatio="xMidYMid meet">
<metadata>
Created by potrace 1.10, written by Peter Selinger 2001-2011
</metadata>
<g transform="translate(0.000000,697.000000) scale(0.100000,-0.100000)"
fill="#917878" stroke="none">
<path d="M448 6883 c248 -2 656 -2 905 0 248 1 45 2 -453 2 -498 0 -701 -1
-452 -2z"/>
<path d="M2513 6883 c93 -2 241 -2 330 0 89 1 14 3 -168 3 -181 0 -254 -2
-162 -3z"/>
<path d="M1782 6848 c-16 -16 -15 -43 1 -56 10 -9 425 -18 564 -12 21 0 35 37
23 60 -10 19 -21 20 -293 20 -207 0 -286 -3 -295 -12z m556 -26 c2 -7 -3 -12
-12 -12 -9 0 -16 7 -16 16 0 17 22 14 28 -4z m-68 0 c0 -4 -103 -9 -230 -9
-129 -1 -230 2 -230 7 0 5 103 9 230 10 127 0 230 -3 230 -8z"/>
<path d="M2394 6821 l-1 -40 124 -3 c68 -2 127 0 132 4 4 5 5 24 3 43 l-4 35
-127 0 -126 0 -1 -39z m209 10 c4 -1 7 -5 7 -11 0 -12 -167 -14 -174 -1 -3 4
-4 10 -2 12 4 3 138 3 169 0z"/>
<path d="M1398 6838 c-50 -18 -33 -33 50 -44 36 -4 51 -2 60 9 11 13 9 18 -10
31 -25 18 -59 19 -100 4z m87 -17 c2 -4 -19 -8 -46 -9 -27 -1 -49 2 -49 7 0
10 89 11 95 2z"/>
<path d="M246 6831 c-4 -5 -3 -12 2 -15 14 -8 92 -4 92 5 0 5 -13 9 -29 9 -16
0 -36 3 -44 6 -8 3 -18 1 -21 -5z"/>
<path d="M374 6831 c-13 -14 3 -19 56 -20 33 0 60 4 60 9 0 8 -108 19 -116 11z"/>
<path d="M505 6820 c-3 -5 3 -10 15 -10 12 0 18 5 15 10 -3 6 -10 10 -15 10
-5 0 -12 -4 -15 -10z"/>
<path d="M255 6750 c4 -6 72 -10 171 -10 108 0 163 3 159 10 -4 6 -72 10 -171
10 -108 0 -163 -3 -159 -10z"/>
<path d="M605 6750 c-4 -6 25 -10 79 -10 51 0 86 4 86 10 0 6 -33 10 -79 10
-44 0 -83 -4 -86 -10z"/>
<path d="M780 6750 c0 -6 47 -10 120 -10 73 0 120 4 120 10 0 6 -47 10 -120
10 -73 0 -120 -4 -120 -10z"/>
<path d="M1805 6750 c-4 -6 7 -10 24 -10 17 0 31 4 31 8 0 11 -48 13 -55 2z"/>
<path d="M0 6595 c0 -15 -7 -15 2275 -15 751 0 725 -1 725 15 0 13 -173 15
-1500 15 -1327 0 -1500 -2 -1500 -15z"/>
<path d="M273 6491 c-26 -5 -30 -9 -23 -21 7 -12 10 -12 10 -1 0 7 6 11 14 8
8 -3 20 1 26 9 7 8 11 13 9 13 -2 -1 -19 -4 -36 -8z"/>
<path d="M695 6465 c0 -25 -4 -30 -25 -30 -14 -1 -28 6 -32 15 -6 13 -7 13 -7
0 -1 -11 -12 -17 -35 -18 -31 -2 -35 0 -38 25 l-3 28 -117 1 c-65 0 -118 -4
-118 -8 0 -8 23 -12 48 -9 10 2 11 -2 2 -18 -13 -25 -40 -28 -40 -4 0 15 -2
14 -15 -3 -11 -14 -14 -15 -15 -4 0 9 -3 11 -8 5 -12 -17 -52 -17 -52 0 0 8
-5 15 -11 15 -7 0 -6 -8 4 -23 13 -21 13 -25 -10 -51 -24 -28 -24 -32 -21
-174 2 -105 6 -147 16 -150 16 -5 16 -29 0 -34 -10 -3 -14 -45 -16 -152 -3
-141 -2 -149 18 -171 l22 -24 582 -1 c497 0 584 2 602 14 18 13 24 13 40 1 16
-12 112 -14 600 -15 578 0 581 0 600 21 16 18 19 39 21 154 1 97 -2 140 -13
160 -11 22 -12 31 0 53 9 18 14 71 14 158 1 120 0 134 -19 158 l-21 27 -467
-5 c-256 -2 -475 -5 -486 -6 -11 -1 -59 1 -106 5 -74 7 -91 5 -117 -11 -30
-17 -32 -17 -52 1 -14 13 -17 22 -10 29 27 27 -2 66 -48 66 -16 0 -19 -5 -14
-22 5 -20 7 -20 10 -5 2 12 9 16 19 13 8 -3 18 -6 22 -6 4 0 7 -9 8 -20 1 -16
-4 -19 -35 -17 -30 2 -38 6 -40 24 -5 31 -29 36 -129 24 -15 -1 -18 -31 -3
-31 6 0 10 4 10 10 0 9 87 12 102 4 4 -3 5 -10 2 -18 -3 -9 -25 -12 -72 -12
-66 1 -67 1 -73 31 l-7 30 -1 -32 c-1 -30 -4 -33 -31 -33 -17 0 -33 7 -39 18
-9 14 -10 14 -11 1 0 -10 -10 -15 -30 -15 -20 0 -30 5 -31 15 0 14 -1 14 -7 1
-8 -17 -102 -24 -102 -7 0 5 -8 0 -19 -11 -10 -12 -22 -22 -27 -22 -4 0 -3 5
4 12 7 7 12 22 12 35 0 13 5 23 10 23 6 0 10 -6 10 -12 0 -9 4 -8 10 2 9 13
12 12 25 -4 8 -11 15 -14 15 -7 0 8 17 12 58 10 95 -3 132 0 132 11 0 7 -52
10 -150 8 -82 -1 -150 -6 -150 -10 0 -4 6 -8 14 -8 9 0 12 -7 9 -20 -4 -16
-13 -19 -57 -17 -41 2 -52 6 -58 22 -6 19 -6 18 -7 -2 -1 -21 -21 -34 -21 -14
0 5 -3 16 -6 24 -7 19 42 29 56 12 11 -14 50 -9 50 6 0 8 -15 10 -95 13 -27 1
-30 -2 -30 -29z m-188 4 c35 2 41 -1 39 -16 -3 -15 -14 -18 -79 -20 -76 -2
-77 -1 -77 24 0 24 2 25 38 18 20 -4 56 -7 79 -6z m911 -246 l3 -153 -488 -4
c-269 -3 -510 -6 -538 -7 -27 -1 -76 2 -107 6 l-58 8 0 147 c0 81 3 150 7 153
3 4 270 6 592 5 l586 -3 3 -152z m1235 -1 l2 -152 -592 0 -593 0 0 155 0 155
591 -2 591 -3 1 -153z m-1186 -168 c3 -8 -1 -22 -9 -30 -13 -13 -16 -13 -28 0
-10 13 -10 19 0 31 16 19 29 19 37 -1z m-49 -191 l3 -153 -596 0 -595 0 0 148
c0 82 3 152 7 155 3 4 270 6 592 5 l586 -3 3 -152z m1235 -1 l2 -152 -592 0
-593 0 0 155 0 155 591 -2 591 -3 1 -153z"/>
<path d="M570 6313 c0 -13 3 -13 15 -3 8 7 15 8 15 2 0 -5 11 -12 25 -14 14
-3 25 -2 25 3 0 4 14 5 30 3 23 -4 30 -1 30 12 0 13 -3 14 -15 4 -8 -7 -15 -9
-15 -4 0 5 -25 10 -55 11 -43 1 -55 -2 -55 -14z"/>
<path d="M736 6323 c-15 -15 -2 -20 52 -21 32 0 60 5 64 11 5 8 8 8 8 1 0 -6
27 -11 66 -12 45 -1 64 2 62 10 -5 13 -67 17 -75 5 -2 -4 -10 -4 -16 0 -17 10
-126 10 -120 0 3 -5 -4 -4 -14 2 -11 6 -23 7 -27 4z"/>
<path d="M317 6296 c-3 -8 -1 -16 5 -18 7 -3 5 -13 -5 -29 -10 -15 -16 -42
-15 -69 1 -25 -1 -57 -6 -72 -8 -27 -7 -28 28 -28 27 0 36 4 37 18 2 25 2 25
-6 49 -5 18 -3 22 9 17 23 -9 19 4 -9 30 -20 19 -23 27 -15 52 4 16 9 24 9 18
1 -7 10 -14 20 -17 14 -3 18 -11 15 -28 l-5 -24 12 22 c13 24 42 38 59 28 18
-11 10 -33 -15 -39 -14 -4 -25 -11 -25 -16 0 -5 7 -7 15 -4 8 4 15 1 15 -5 0
-6 -7 -11 -15 -11 -18 0 -20 -16 -3 -26 8 -5 4 -10 -10 -15 -11 -4 -26 -17
-32 -28 -10 -20 -8 -21 34 -21 32 0 48 5 55 18 10 16 10 16 11 0 0 -12 8 -18
22 -18 l21 0 -23 25 c-13 14 -30 25 -37 25 -10 0 -11 8 -7 28 9 36 14 43 25
36 5 -3 7 -9 4 -14 -3 -5 -1 -11 5 -15 28 -17 17 60 -13 90 -22 22 -99 55
-128 55 -15 0 -29 -6 -32 -14z m21 -186 c-14 -22 -24 -19 -15 5 4 8 11 15 17
15 6 0 6 -7 -2 -20z"/>
<path d="M565 6261 c-14 -14 -1 -23 30 -19 19 2 37 -1 39 -7 2 -5 5 -3 5 6 1
12 -9 18 -34 21 -20 2 -38 2 -40 -1z"/>
<path d="M655 6250 c-3 -5 18 -9 50 -9 30 1 55 4 55 8 0 10 -99 11 -105 1z"/>
<path d="M770 6250 c0 -5 14 -10 30 -10 17 0 30 5 30 10 0 6 -13 10 -30 10
-16 0 -30 -4 -30 -10z"/>
<path d="M845 6250 c-3 -5 26 -9 75 -9 44 0 80 4 80 9 0 11 -148 12 -155 0z"/>
<path d="M1016 6248 c7 -12 54 -10 54 2 0 6 -13 9 -29 8 -16 -1 -27 -6 -25
-10z"/>
<path d="M1080 6250 c0 -6 40 -10 100 -10 55 0 100 4 100 9 0 5 -45 10 -100
10 -60 1 -100 -3 -100 -9z"/>
<path d="M1290 6250 c0 -5 18 -10 40 -10 22 0 40 5 40 10 0 6 -18 10 -40 10
-22 0 -40 -4 -40 -10z"/>
<path d="M585 6210 l-30 -8 33 -1 c17 0 32 4 32 9 0 6 -1 9 -2 9 -2 -1 -16 -5
-33 -9z"/>
<path d="M634 6209 c-7 -11 47 -14 131 -8 87 6 73 10 -48 12 -44 1 -81 -1 -83
-4z"/>
<path d="M850 6209 c0 -9 60 -17 65 -8 3 4 -11 9 -30 11 -19 2 -35 1 -35 -3z"/>
<path d="M1016 6211 c-9 -14 34 -19 94 -11 l55 8 -61 -1 c-34 0 -66 3 -72 7
-6 3 -13 2 -16 -3z"/>
<path d="M1180 6209 c0 -8 38 -19 68 -19 41 0 22 18 -23 22 -25 2 -45 0 -45
-3z"/>
<path d="M1305 6210 l-30 -8 33 -1 c17 0 32 4 32 9 0 6 -1 9 -2 9 -2 -1 -16
-5 -33 -9z"/>
<path d="M930 6200 c0 -6 11 -8 28 -4 39 10 40 14 4 14 -18 0 -32 -5 -32 -10z"/>
<path d="M560 6160 c0 -6 30 -10 75 -10 41 0 75 4 75 9 0 4 -34 9 -75 10 -46
1 -75 -2 -75 -9z"/>
<path d="M720 6160 c0 -5 14 -10 30 -10 17 0 30 5 30 10 0 6 -13 10 -30 10
-16 0 -30 -4 -30 -10z"/>
<path d="M790 6160 c0 -5 16 -10 35 -10 19 0 35 5 35 10 0 6 -16 10 -35 10
-19 0 -35 -4 -35 -10z"/>
<path d="M870 6160 c0 -5 43 -9 95 -9 60 0 94 3 90 9 -7 12 -185 12 -185 0z"/>
<path d="M1657 6338 c-2 -18 -3 -35 -1 -37 7 -7 59 17 57 27 -2 8 5 9 23 2 34
-13 34 -13 34 15 0 24 -3 25 -54 25 -53 0 -54 0 -59 -32z"/>
<path d="M1628 6325 c-2 -19 0 -35 4 -35 4 0 8 16 8 35 0 19 -2 35 -4 35 -2 0
-6 -16 -8 -35z"/>
<path d="M1800 6315 c0 -12 13 -14 58 -13 31 1 65 -2 75 -6 13 -6 17 -3 17 13
0 12 -5 21 -11 21 -5 0 -7 -5 -3 -12 5 -7 3 -8 -6 -3 -21 13 -94 14 -102 2 -6
-9 -8 -9 -8 1 0 6 -4 12 -10 12 -5 0 -10 -7 -10 -15z"/>
<path d="M1965 6320 c-9 -15 17 -22 64 -17 22 2 41 0 41 -5 0 -5 10 -6 22 -2
13 4 35 7 50 6 16 0 28 5 28 11 0 8 -26 12 -85 12 -47 0 -85 -3 -85 -7 0 -5
-5 -8 -11 -8 -5 0 -7 5 -4 10 3 6 2 10 -4 10 -5 0 -13 -5 -16 -10z"/>
<path d="M1721 6293 c0 -5 4 -17 9 -28 5 -13 3 -26 -7 -37 -9 -10 -11 -18 -4
-22 5 -4 12 -2 16 4 12 19 22 10 23 -21 1 -26 -2 -28 -14 -18 -11 9 -18 9 -26
1 -17 -17 -28 -15 -28 4 0 11 -6 14 -20 9 -20 -6 -24 2 -23 43 1 6 -4 12 -11
12 -6 0 -21 3 -33 6 -16 5 -23 2 -23 -8 0 -24 82 -85 125 -94 6 -1 22 -5 38
-9 l27 -7 0 86 c0 85 0 86 -25 86 -14 0 -25 -3 -24 -7z"/>
<path d="M1651 6276 c-19 -22 2 -26 28 -5 22 18 22 19 3 19 -11 0 -25 -6 -31
-14z"/>
<path d="M1533 6266 c-29 -5 -53 -13 -53 -18 0 -15 81 -9 97 7 20 21 17 22
-44 11z"/>
<path d="M1806 6248 c7 -11 42 -10 49 2 4 6 -5 10 -24 8 -16 -1 -27 -6 -25
-10z"/>
<path d="M1870 6250 c0 -6 52 -10 135 -9 74 0 135 4 135 9 0 4 -61 8 -135 9
-83 0 -135 -3 -135 -9z"/>
<path d="M2150 6248 c0 -5 38 -8 85 -7 47 1 85 5 85 10 0 4 -38 7 -85 7 -47
-1 -85 -5 -85 -10z"/>
<path d="M2336 6251 c-3 -5 6 -11 19 -14 25 -4 40 4 28 17 -9 9 -41 7 -47 -3z"/>
<path d="M2400 6250 c0 -5 9 -10 21 -10 11 0 17 5 14 10 -3 6 -13 10 -21 10
-8 0 -14 -4 -14 -10z"/>
<path d="M2454 6251 c8 -12 96 -13 96 -1 0 6 -23 10 -51 10 -27 0 -48 -4 -45
-9z"/>
<path d="M1480 6164 c0 -35 5 -61 14 -70 16 -16 30 -19 21 -5 -3 5 5 12 17 14
l23 4 -22 2 c-13 0 -23 8 -23 16 0 8 -6 15 -12 15 -10 0 -10 2 0 9 18 11 19
15 5 33 -11 12 -8 14 18 10 35 -5 59 -39 38 -53 -11 -7 -10 -9 3 -9 9 0 20 -4
23 -10 3 -6 -1 -7 -9 -4 -9 3 -16 1 -16 -5 0 -6 19 -11 45 -11 25 0 45 -4 45
-10 0 -5 5 -10 12 -10 9 0 9 3 0 12 -17 17 -15 29 3 22 8 -4 15 -2 15 3 0 5
-20 14 -45 21 -33 9 -50 21 -67 47 -19 28 -29 35 -55 35 l-33 0 0 -56z"/>
<path d="M1848 6212 c-73 -5 -57 -17 22 -17 39 0 70 3 70 6 0 10 -39 14 -92
11z"/>
<path d="M1983 6213 c-18 -2 -33 -9 -33 -15 0 -5 7 -7 16 -4 9 3 32 6 52 6 28
0 33 3 22 10 -8 5 -17 9 -20 8 -3 -1 -20 -3 -37 -5z"/>
<path d="M2142 6208 c-9 -4 19 -7 62 -7 44 -1 77 1 74 4 -8 8 -117 11 -136 3z"/>
<path d="M2315 6210 c-23 -6 -15 -8 34 -9 35 0 62 1 60 3 -10 9 -67 12 -94 6z"/>
<path d="M2424 6209 c-3 -5 14 -9 38 -10 24 0 64 -1 91 -2 26 -1 47 1 47 6 0
4 -6 7 -12 8 -7 0 -46 1 -86 3 -40 2 -75 -1 -78 -5z"/>
<path d="M2073 6203 c9 -2 25 -2 35 0 9 3 1 5 -18 5 -19 0 -27 -2 -17 -5z"/>
<path d="M1800 6161 c0 -10 100 -20 106 -10 1 3 17 4 34 1 16 -2 30 0 30 4 0
5 -38 10 -85 11 -47 2 -85 -1 -85 -6z"/>
<path d="M1984 6163 c11 -11 46 -14 46 -3 0 6 -12 10 -27 10 -14 0 -23 -3 -19
-7z"/>
<path d="M2045 6160 c-3 -5 3 -10 14 -10 12 0 24 0 28 -1 4 0 9 4 11 10 5 14
-45 15 -53 1z"/>
<path d="M1720 6116 c0 -10 31 -35 43 -36 4 0 7 7 7 16 0 10 -6 14 -14 11 -7
-3 -19 0 -25 6 -6 6 -11 7 -11 3z"/>
<path d="M570 5954 c0 -8 19 -12 63 -11 34 0 69 -3 76 -7 12 -8 36 13 26 23
-3 2 -41 5 -85 6 -58 1 -80 -1 -80 -11z"/>
<path d="M750 5954 c0 -8 17 -12 45 -12 30 0 45 4 45 12 0 9 -15 13 -45 12
-28 0 -45 -5 -45 -12z"/>
<path d="M853 5955 c0 -12 10 -14 46 -11 59 5 60 6 33 17 -15 6 -30 5 -43 -1
-13 -7 -19 -7 -19 0 0 5 -4 10 -8 10 -5 0 -9 -7 -9 -15z"/>
<path d="M990 5955 c0 -6 27 -11 60 -12 49 -2 60 1 60 14 0 13 -2 14 -17 2 -9
-8 -14 -9 -10 -3 4 7 -10 10 -43 10 -28 -1 -50 -6 -50 -11z"/>
<path d="M1124 5958 c-3 -5 -3 -12 1 -16 3 -3 10 0 15 8 6 8 10 10 10 5 0 -6
23 -11 50 -12 31 0 50 4 50 11 0 14 -118 17 -126 4z"/>
<path d="M380 5914 c-11 -28 1 -54 25 -54 16 0 39 45 32 64 -10 26 -46 19 -57
-10z"/>
<path d="M483 5929 c-29 -11 -30 -36 -2 -44 14 -5 27 -1 37 9 14 14 14 18 2
30 -11 10 -22 11 -37 5z"/>
<path d="M566 5888 c8 -12 84 -10 84 2 0 7 -19 10 -44 9 -25 -2 -43 -6 -40
-11z"/>
<path d="M660 5889 c0 -5 25 -9 56 -9 30 0 53 4 50 9 -3 4 -28 8 -56 8 -27 0
-50 -4 -50 -8z"/>
<path d="M780 5891 c0 -5 11 -8 25 -8 14 0 25 3 25 8 0 5 -11 9 -25 9 -14 0
-25 -4 -25 -9z"/>
<path d="M846 5891 c-3 -5 12 -11 35 -13 22 -2 42 -1 45 3 2 3 15 4 29 1 15
-2 25 0 25 7 0 13 -126 15 -134 2z"/>
<path d="M990 5890 c0 -5 9 -10 20 -10 11 0 20 5 20 10 0 6 -9 10 -20 10 -11
0 -20 -4 -20 -10z"/>
<path d="M1040 5891 c0 -5 23 -9 50 -8 28 0 50 4 50 9 0 4 -22 8 -50 8 -27 0
-50 -4 -50 -9z"/>
<path d="M1150 5890 c0 -5 45 -9 100 -8 55 1 100 5 100 10 0 4 -45 7 -100 7
-55 0 -100 -4 -100 -9z"/>
<path d="M444 5865 c-3 -8 -3 -18 0 -24 4 -5 2 -13 -4 -16 -8 -5 -7 -11 1 -21
17 -20 39 -17 39 5 0 11 5 23 10 26 16 10 11 21 -15 33 -21 10 -27 9 -31 -3z"/>
<path d="M560 5849 c0 -10 245 -16 285 -8 17 4 -20 8 -85 9 -63 2 -134 4 -157
4 -24 1 -43 -1 -43 -5z"/>
<path d="M884 5849 c-6 -11 50 -18 66 -8 17 10 17 10 -28 12 -19 1 -36 -1 -38
-4z"/>
<path d="M970 5848 c0 -5 37 -8 83 -9 45 0 101 -1 125 -3 23 -1 42 1 42 6 0 9
5 9 -143 11 -59 1 -107 -1 -107 -5z"/>
<path d="M520 5811 c0 -27 -63 -65 -92 -56 -23 7 -23 7 -3 -12 11 -11 22 -17
25 -14 3 3 22 15 43 25 30 15 37 25 37 48 0 15 -2 28 -5 28 -3 0 -5 -9 -5 -19z"/>
<path d="M565 5801 c-3 -6 12 -11 32 -13 52 -4 123 2 123 11 0 11 -148 12
-155 2z"/>
<path d="M730 5800 c0 -5 11 -10 25 -10 14 0 25 5 25 10 0 6 -11 10 -25 10
-14 0 -25 -4 -25 -10z"/>
<path d="M790 5801 c0 -5 23 -11 51 -13 49 -3 66 2 52 16 -10 10 -103 7 -103
-3z"/>
<path d="M1487 6003 c-4 -3 -7 -37 -7 -74 0 -58 2 -67 16 -62 10 4 14 14 11
30 -3 18 -1 21 6 14 17 -17 27 -13 27 9 0 26 26 77 42 83 7 3 -10 6 -38 6 -28
1 -54 -2 -57 -6z m41 -32 c3 -8 -1 -12 -9 -9 -7 2 -15 10 -17 17 -3 8 1 12 9
9 7 -2 15 -10 17 -17z"/>
<path d="M1700 6007 c0 -2 9 -23 21 -46 11 -24 18 -49 15 -57 -3 -8 1 -14 10
-14 15 0 16 -30 1 -41 -4 -3 -3 -18 3 -33 13 -35 13 -59 0 -51 -6 4 -10 -5
-10 -19 0 -16 6 -26 15 -26 13 0 15 23 15 145 l0 145 -35 0 c-19 0 -35 -1 -35
-3z"/>
<path d="M1807 5954 c5 -13 7 -13 14 -2 6 9 9 9 9 1 0 -9 23 -12 75 -11 57 0
75 4 75 14 0 8 -5 14 -11 14 -5 0 -8 -4 -4 -9 3 -6 -6 -6 -25 -1 -18 5 -32 5
-36 -1 -3 -6 -10 -6 -17 -1 -7 5 -29 10 -49 10 -30 1 -36 -2 -31 -14z"/>
<path d="M1990 5956 c0 -12 25 -15 141 -14 102 0 139 3 136 11 -5 15 -37 16
-56 2 -10 -7 -13 -7 -9 0 7 11 -102 11 -129 1 -7 -3 -13 0 -13 7 0 7 -3 8 -8
2 -9 -12 -44 -16 -36 -4 3 5 -2 9 -10 9 -9 0 -16 -6 -16 -14z"/>
<path d="M1603 5928 c3 -9 0 -19 -6 -21 -8 -2 -7 -6 1 -11 6 -4 19 2 28 12 17
20 54 19 54 -1 0 -7 4 -7 12 1 10 10 10 15 -1 21 -8 5 -20 7 -28 4 -7 -3 -13
-1 -13 5 0 5 -11 9 -26 8 -18 -1 -24 -6 -21 -18z"/>
<path d="M1640 5903 c0 -5 5 -15 10 -23 8 -12 10 -11 10 8 0 12 -4 22 -10 22
-5 0 -10 -3 -10 -7z"/>
<path d="M1800 5897 c0 -8 15 -14 40 -15 25 -2 40 2 40 9 0 7 -10 9 -25 7 -14
-3 -28 -1 -31 3 -8 14 -24 11 -24 -4z"/>
<path d="M1890 5888 c0 -4 110 -7 245 -7 144 1 243 5 239 10 -6 11 -484 8
-484 -3z"/>
<path d="M2390 5890 c0 -5 9 -10 20 -10 11 0 20 5 20 10 0 6 -9 10 -20 10 -11
0 -20 -4 -20 -10z"/>
<path d="M2440 5891 c0 -5 38 -9 85 -10 51 -1 85 3 85 9 0 6 -34 10 -85 10
-47 0 -85 -4 -85 -9z"/>
<path d="M1610 5875 c0 -8 5 -15 10 -15 6 0 10 7 10 15 0 8 -4 15 -10 15 -5 0
-10 -7 -10 -15z"/>
<path d="M1650 5864 c-14 -7 -33 -11 -42 -8 -28 8 -21 -4 11 -20 27 -14 30
-14 55 9 14 13 26 27 26 30 0 9 -24 4 -50 -11z"/>
<path d="M1840 5849 c-31 -4 -14 -6 58 -7 56 -1 102 1 102 6 0 8 -97 9 -160 1z"/>
<path d="M2100 5850 c-22 -7 -21 -8 13 -9 23 -1 36 3 32 9 -7 11 -10 11 -45 0z"/>
<path d="M2234 5849 c-6 -11 50 -18 66 -8 17 10 17 10 -28 12 -19 1 -36 -1
-38 -4z"/>
<path d="M2498 5853 c-97 -5 -84 -18 17 -18 82 0 103 6 69 19 -9 3 -16 5 -17
4 -1 -1 -32 -3 -69 -5z"/>
<path d="M1481 5808 c0 -33 2 -38 9 -23 12 28 12 65 0 65 -5 0 -10 -19 -9 -42z"/>
<path d="M2023 5843 c9 -2 25 -2 35 0 9 3 1 5 -18 5 -19 0 -27 -2 -17 -5z"/>
<path d="M2160 5842 c0 -5 14 -7 30 -4 17 2 30 6 30 8 0 2 -13 4 -30 4 -16 0
-30 -4 -30 -8z"/>
<path d="M2349 5840 c19 -5 44 -4 55 0 15 6 5 9 -34 8 -50 0 -52 -1 -21 -8z"/>
<path d="M1800 5800 c0 -5 14 -10 30 -10 17 0 30 4 30 8 0 4 -13 9 -30 10 -16
1 -30 -2 -30 -8z"/>
<path d="M1870 5800 c0 -6 20 -10 45 -10 25 0 45 4 45 9 0 5 -20 9 -45 9 -25
1 -45 -3 -45 -8z"/>
<path d="M1580 5775 c-7 -9 -8 -15 0 -20 5 -3 10 -1 10 5 0 6 4 9 9 5 5 -3 12
-1 15 4 10 15 -22 21 -34 6z"/>
<path d="M580 6477 c0 -8 14 -12 43 -10 58 2 57 2 57 13 0 6 -22 10 -50 10
-34 0 -50 -4 -50 -13z"/>
<path d="M435 5421 c-128 -5 -1 -7 394 -9 321 -1 582 0 580 2 -8 8 -783 13
-974 7z"/>
<path d="M1421 5230 c-1 -96 -3 -195 -4 -219 l-2 -43 -75 -20 c-96 -25 -174
-44 -276 -64 -70 -15 -82 -20 -97 -46 -11 -18 -21 -27 -29 -22 -10 5 -10 4 -1
-6 9 -10 17 -7 40 17 33 36 64 45 82 26 8 -9 16 -11 20 -5 10 15 83 35 90 25
9 -13 50 -11 44 3 -3 10 55 31 190 70 12 4 17 -1 18 -18 0 -21 1 -22 8 -3 4
11 5 124 1 250 l-7 230 -2 -175z"/>
<path d="M2227 5394 c-4 -4 -130 -8 -279 -8 l-273 -1 -3 -27 c-5 -44 19 -50
221 -46 153 3 182 1 179 -11 -3 -12 0 -12 12 -1 11 8 16 9 16 1 0 -15 43 -14
58 1 7 7 41 10 99 8 138 -5 151 -4 167 9 19 16 21 45 4 59 -16 12 -191 26
-201 16z m-487 -24 c0 -3 45 -4 99 -3 92 3 99 1 94 -16 -4 -17 -16 -19 -129
-19 l-124 0 0 24 c0 21 4 24 30 22 17 -1 30 -5 30 -8z m288 -1 c16 0 22 -5 22
-19 0 -15 -7 -20 -25 -20 -14 0 -25 6 -26 13 0 10 -2 10 -6 0 -8 -21 -43 -16
-43 6 0 22 18 32 40 24 8 -3 25 -5 38 -4z m66 3 c2 -4 23 -7 45 -5 39 2 40 1
29 -23 -9 -18 -16 -23 -32 -18 -12 4 -34 7 -50 6 -20 0 -26 2 -18 10 6 6 8 17
5 24 -5 15 12 20 21 6z m156 -15 c0 -20 -5 -24 -30 -25 -23 0 -30 4 -30 18 0
17 7 20 53 29 4 0 7 -10 7 -22z m54 15 c2 -4 32 -7 65 -5 56 2 61 0 61 -19 0
-15 -5 -19 -20 -15 -11 3 -23 1 -26 -4 -3 -5 -17 -6 -31 -3 -15 4 -39 7 -55 8
-15 1 -28 4 -28 9 0 4 0 14 0 22 0 16 25 21 34 7z"/>
<path d="M220 5248 c-1 -165 -8 -357 -15 -367 -2 -4 2 -29 10 -57 12 -44 13
-19 14 259 1 169 -1 307 -4 307 -3 0 -5 -64 -5 -142z"/>
<path d="M803 5318 c-5 -13 -8 -29 -6 -35 7 -21 33 -15 33 8 0 25 23 20 28 -6
4 -20 -17 -65 -30 -65 -5 0 -13 10 -19 23 -9 21 -9 21 -4 -3 2 -14 5 -28 5
-32 0 -14 20 -8 39 11 10 10 24 20 30 22 12 4 -2 61 -22 87 -15 19 -43 14 -54
-10z"/>
<path d="M994 5294 c-27 -34 -27 -36 -11 -64 22 -37 21 -49 -2 -47 -11 0 -18
4 -15 8 2 4 1 15 -3 25 -6 16 -7 15 -21 -2 -14 -18 -14 -18 -9 4 8 35 -29 28
-49 -9 -15 -29 -15 -31 0 -26 11 5 16 1 16 -13 0 -16 4 -17 31 -10 36 11 53 5
45 -15 -3 -8 2 -19 9 -25 12 -10 16 -9 21 4 3 9 4 22 1 30 -3 7 1 23 9 35 13
18 13 21 0 21 -10 0 -13 9 -12 33 4 47 5 49 16 42 5 -3 7 -12 3 -20 -3 -9 1
-15 10 -15 17 0 30 40 21 64 -10 26 -31 19 -60 -20z"/>
<path d="M1316 5286 c3 -8 12 -17 20 -20 11 -4 12 -2 1 14 -14 23 -29 27 -21
6z"/>
<path d="M1707 5208 c5 -10 162 -8 168 1 2 5 -36 7 -84 7 -49 -1 -87 -4 -84
-8z"/>
<path d="M2027 5211 c-11 -4 19 -7 64 -8 54 0 76 3 61 8 -25 10 -99 9 -125 0z"/>
<path d="M2196 5208 c3 -4 56 -6 119 -5 65 0 109 5 101 9 -18 10 -226 6 -220
-4z"/>
<path d="M2468 5209 c-13 -3 20 -6 72 -6 96 0 98 4 3 9 -29 2 -62 0 -75 -3z"/>
<path d="M1938 5203 c12 -2 30 -2 40 0 9 3 -1 5 -23 4 -22 0 -30 -2 -17 -4z"/>
<path d="M695 5190 c-7 -12 2 -12 30 0 19 8 19 9 -2 9 -12 1 -25 -3 -28 -9z"/>
<path d="M759 5179 c-30 -30 -16 -35 16 -5 16 15 23 26 16 26 -6 0 -20 -9 -32
-21z"/>
<path d="M1710 5182 c-14 -2 -29 -7 -34 -12 -4 -4 65 -9 155 -10 90 0 228 -2
307 -3 78 -1 142 2 142 7 0 4 8 5 18 1 26 -10 302 -6 321 5 10 6 -151 8 -432
7 -246 -1 -448 0 -450 3 -1 3 -13 4 -27 2z"/>
<path d="M637 5152 c-27 -30 -37 -71 -37 -150 0 -102 6 -122 36 -122 21 0 24
4 18 25 -8 33 14 88 32 81 8 -3 14 1 14 8 0 8 -7 16 -15 20 -20 7 -34 47 -24
66 5 8 15 31 22 50 14 34 13 36 -8 38 -12 1 -29 -6 -38 -16z m16 -129 c4 -6
-2 -27 -13 -45 -23 -38 -23 -37 -20 52 2 78 13 100 20 45 3 -22 9 -45 13 -52z"/>
<path d="M785 5125 c3 -16 8 -38 11 -48 5 -15 2 -18 -13 -13 -30 10 -61 -53
-45 -89 10 -21 9 -27 -2 -31 -18 -7 -40 -59 -31 -73 8 -15 56 -13 75 2 8 7 21
24 27 40 16 36 42 37 35 0 -4 -24 -3 -25 19 -20 13 4 32 7 42 7 12 0 17 8 17
31 0 64 32 144 58 144 6 0 12 5 12 10 0 6 -10 10 -22 10 -13 0 -23 -6 -23 -14
0 -7 -10 -17 -22 -22 -25 -9 -30 0 -10 20 10 11 8 13 -13 7 -14 -3 -28 -6 -32
-6 -5 0 -8 -7 -8 -16 0 -8 3 -13 8 -10 4 2 16 -2 27 -10 15 -11 17 -19 9 -41
-7 -20 -22 -32 -59 -45 -28 -9 -58 -22 -67 -28 -14 -8 -18 -7 -18 5 0 8 7 15
15 15 21 0 30 27 15 45 -10 12 -9 15 4 15 9 0 16 7 16 15 0 8 9 15 20 15 26 0
26 20 -1 27 -17 5 -20 11 -15 35 3 17 2 27 -4 23 -5 -3 -14 3 -20 12 -9 15
-10 13 -5 -12z"/>
<path d="M836 5124 c-9 -24 -7 -27 9 -10 17 17 19 26 6 26 -5 0 -12 -7 -15
-16z"/>
<path d="M1686 5133 c-3 -3 -6 -10 -6 -14 0 -13 939 -8 947 4 3 6 1 7 -5 3 -7
-4 -12 -3 -12 3 0 11 -913 15 -924 4z"/>
<path d="M725 5110 c-3 -5 3 -10 14 -10 12 0 21 5 21 10 0 6 -6 10 -14 10 -8
0 -18 -4 -21 -10z"/>
<path d="M436 5102 c-3 -6 -1 -14 5 -17 15 -10 25 3 12 16 -7 7 -13 7 -17 1z"/>
<path d="M1680 5079 c0 -10 139 -16 148 -7 4 4 30 8 57 10 28 2 -7 4 -77 4
-71 0 -128 -3 -128 -7z"/>
<path d="M1953 5084 c7 -7 117 -7 125 1 3 3 -25 5 -63 5 -38 0 -66 -3 -62 -6z"/>
<path d="M2148 5083 c34 -2 88 -2 120 0 31 2 3 3 -63 3 -66 0 -92 -1 -57 -3z"/>
<path d="M2463 5083 c31 -2 83 -2 115 0 31 2 5 3 -58 3 -63 0 -89 -1 -57 -3z"/>
<path d="M1290 5045 c0 -6 5 -16 10 -21 8 -8 6 -15 -5 -24 -8 -7 -15 -8 -15
-3 0 5 -15 9 -32 8 -18 -1 -32 -6 -31 -11 1 -5 -14 -10 -32 -11 -24 -1 -35 3
-38 15 -2 9 -3 6 -1 -8 2 -24 0 -26 -30 -22 -20 2 -37 -2 -44 -11 -7 -8 -21
-13 -31 -10 -11 3 -21 -2 -24 -11 -8 -20 14 -21 78 -2 26 8 72 18 102 22 33 4
57 12 63 23 5 9 10 11 10 5 0 -8 16 -8 56 2 61 14 80 26 70 43 -8 12 -44 -2
-59 -23 -6 -8 -10 -8 -13 0 -9 21 -33 49 -34 39z"/>
<path d="M1723 5043 c15 -2 37 -2 50 0 12 2 0 4 -28 4 -27 0 -38 -2 -22 -4z"/>
<path d="M500 5005 c-9 -10 -9 -15 -1 -15 6 0 11 4 11 9 0 5 8 12 18 14 14 4
14 5 1 6 -9 0 -22 -6 -29 -14z"/>
<path d="M2040 4999 l-75 -5 80 -2 c44 -1 87 3 95 8 12 7 11 9 -5 7 -11 -1
-54 -5 -95 -8z"/>
<path d="M2199 5001 c16 -11 221 -14 221 -4 0 4 -52 9 -116 9 -64 1 -111 -1
-105 -5z"/>
<path d="M2475 5000 c-19 -8 -19 -9 2 -9 12 -1 25 4 28 9 7 12 -2 12 -30 0z"/>
<path d="M983 4992 c-8 -5 -8 -13 2 -32 l14 -25 1 33 c0 35 0 35 -17 24z"/>
<path d="M1748 4993 c12 -2 32 -2 45 0 12 2 2 4 -23 4 -25 0 -35 -2 -22 -4z"/>
<path d="M1857 4993 c18 -2 50 -2 70 0 21 2 7 4 -32 4 -38 0 -55 -2 -38 -4z"/>
<path d="M2524 4991 c5 -8 56 -3 56 5 0 2 -14 4 -31 4 -16 0 -28 -4 -25 -9z"/>
<path d="M2248 4975 c-2 -3 -131 -5 -286 -6 -160 0 -282 -5 -282 -10 0 -5 24
-9 53 -9 81 -1 580 -1 695 0 64 0 102 4 102 10 0 7 -45 10 -129 9 -71 -1 -133
1 -138 4 -6 4 -12 4 -15 2z"/>
<path d="M946 4925 c-19 -14 -18 -15 13 -15 29 0 32 2 21 15 -7 8 -13 15 -14
15 0 0 -10 -7 -20 -15z"/>
<path d="M271 4913 c-1 -21 3 -23 52 -23 28 0 62 -3 75 -6 13 -4 22 -2 22 5 0
5 -6 8 -14 5 -7 -3 -20 1 -27 9 -15 14 -24 14 -71 2 -21 -5 -27 -3 -31 12 -4
15 -5 14 -6 -4z"/>
<path d="M557 4908 c-5 -17 -9 -19 -20 -9 -12 9 -16 8 -21 -4 -4 -11 2 -15 23
-15 20 0 30 6 34 20 3 11 2 22 -3 25 -4 3 -10 -5 -13 -17z"/>
<path d="M1670 4895 c-17 -27 -20 -44 -16 -69 11 -57 23 -61 192 -61 141 0
154 2 168 20 20 25 20 84 1 109 -12 16 -12 22 -2 28 6 4 -63 8 -155 8 l-166 0
-22 -35z m330 -55 l0 -50 -160 0 -160 0 0 43 c0 24 3 47 7 50 3 4 75 7 160 7
l153 0 0 -50z"/>
<path d="M1730 4839 c0 -5 16 -9 35 -9 46 0 46 14 0 17 -19 1 -35 -3 -35 -8z"/>
<path d="M1824 4838 c-3 -4 4 -8 15 -8 11 0 22 4 25 8 2 4 -4 8 -15 8 -11 0
-23 -4 -25 -8z"/>
<path d="M1880 4840 c0 -6 19 -10 42 -10 23 0 38 3 35 6 -11 11 -77 14 -77 4z"/>
<path d="M2041 4920 c9 -5 28 -6 45 0 27 8 26 8 -16 9 -32 0 -40 -2 -29 -9z"/>
<path d="M2134 4922 c8 -7 220 -8 306 -1 48 4 5 6 -118 6 -106 0 -190 -2 -188
-5z"/>
<path d="M436 4904 c-9 -23 -8 -24 24 -24 17 0 30 5 30 10 0 6 -7 10 -15 10
-8 0 -15 5 -15 10 0 16 -17 12 -24 -6z"/>
<path d="M1397 4860 c3 -11 9 -20 14 -20 5 0 9 9 9 20 0 11 -6 20 -14 20 -9 0
-12 -7 -9 -20z"/>
<path d="M1337 4863 c-12 -12 -8 -45 6 -40 6 2 11 12 11 21 -2 19 7 21 26 4
12 -11 12 -10 1 5 -14 17 -33 22 -44 10z"/>
<path d="M1268 4848 c-29 -8 -38 -15 -38 -31 0 -16 3 -18 11 -10 6 6 17 9 24
7 7 -3 16 0 20 6 5 8 11 5 21 -7 12 -16 13 -15 14 15 0 17 -3 32 -7 31 -5 -1
-25 -6 -45 -11z"/>
<path d="M867 4833 c6 -14 43 -18 43 -4 0 5 -11 11 -24 13 -17 4 -23 1 -19 -9z"/>
<path d="M1030 4815 c0 -15 3 -25 7 -22 3 4 12 2 20 -4 21 -18 16 8 -7 33
l-20 22 0 -29z"/>
<path d="M270 4820 c14 -4 39 -8 57 -9 17 -1 34 -7 36 -13 3 -8 6 -7 6 4 1 12
9 16 31 16 17 -1 30 -5 30 -9 0 -12 83 -4 87 8 3 8 -39 11 -134 11 -85 0 -128
-3 -113 -8z"/>
<path d="M536 4814 c-5 -12 -1 -14 17 -9 34 11 39 20 13 23 -14 1 -27 -5 -30
-14z"/>
<path d="M615 4821 c-17 -7 -17 -8 8 -15 18 -4 35 -1 50 9 21 15 21 15 -8 14
-17 0 -39 -4 -50 -8z"/>
<path d="M1167 4823 c-6 -6 -27 -10 -64 -12 -7 -1 -13 -6 -13 -12 0 -6 6 -9
14 -6 7 3 18 1 23 -4 7 -7 16 -5 26 6 9 9 19 16 22 15 29 -2 45 2 45 10 0 11
-43 14 -53 3z"/>
<path d="M1422 4788 l-2 -48 -366 0 c-246 0 -372 4 -386 11 -12 6 -18 7 -14 1
4 -7 -63 -9 -194 -9 -110 1 -187 -1 -172 -5 15 -5 270 -11 567 -14 610 -7 579
-10 572 66 l-4 45 -1 -47z"/>
<path d="M990 4795 c0 -8 5 -15 10 -15 6 0 10 7 10 15 0 8 -4 15 -10 15 -5 0
-10 -7 -10 -15z"/>
<path d="M760 4776 c0 -8 -6 -17 -12 -19 -7 -3 -3 -6 9 -6 16 -1 20 3 16 19
-6 23 -13 26 -13 6z"/>
<path d="M122 4622 c-99 -2 -122 -5 -122 -17 0 -13 187 -15 1500 -15 1455 0
1500 1 1500 19 0 18 -42 18 -1377 17 -758 -1 -1433 -2 -1501 -4z"/>
<path d="M1877 4540 c-1 -3 -1 -121 1 -262 l3 -258 394 0 395 0 -2 263 -3 262
-393 0 c-217 0 -395 -2 -395 -5z m758 -29 c7 -12 5 -351 -3 -406 l-7 -50 -50
-3 c-81 -5 -114 5 -121 36 -7 27 -42 112 -47 112 -10 0 -3 -41 9 -50 7 -7 11
-16 8 -22 -3 -5 1 -20 10 -33 20 -30 20 -45 1 -45 -8 0 -15 5 -15 12 0 6 -8 4
-19 -6 -22 -20 -49 -12 -61 18 -6 15 -9 16 -9 5 -1 -17 -45 -29 -109 -29 -39
0 -55 26 -27 46 17 13 16 14 -12 14 -31 0 -31 -1 -22 -32 5 -18 9 -34 9 -35 0
-2 -9 -3 -19 -3 -10 0 -33 13 -50 29 -30 28 -30 29 -12 52 21 28 33 69 20 69
-5 0 -9 -7 -9 -16 0 -18 -23 -44 -39 -44 -7 0 -7 -8 -1 -25 9 -24 8 -26 -7
-24 -3 0 -10 -6 -14 -14 -9 -16 -103 -17 -119 -1 -5 5 -12 66 -16 135 -5 102
-3 129 8 140 13 13 16 23 19 62 0 6 -3 36 -7 65 l-7 53 357 -2 c196 0 358 -4
361 -8z"/>
<path d="M2284 4441 c10 -18 24 -31 35 -31 11 0 22 -6 24 -12 3 -7 6 -8 6 -2
1 6 -17 25 -40 43 l-41 33 16 -31z"/>
<path d="M2227 4446 c-4 -10 -5 -21 -2 -24 9 -9 17 6 13 25 -3 17 -4 17 -11
-1z"/>
<path d="M2370 4364 l-25 -14 23 0 c13 0 21 -4 18 -9 -3 -5 1 -12 9 -15 18 -6
30 16 21 39 -6 18 -13 18 -46 -1z"/>
<path d="M2218 4343 c-10 -2 -18 -11 -18 -19 0 -18 10 -18 38 2 12 8 31 13 41
9 11 -3 22 -1 26 5 6 10 -52 12 -87 3z"/>
<path d="M2004 4325 c-3 -8 2 -24 11 -37 17 -23 17 -23 10 -1 -4 16 0 25 14
33 20 10 71 4 71 -9 0 -3 9 -12 20 -19 16 -10 20 -10 20 1 0 34 -134 64 -146
32z"/>
<path d="M2050 4302 c0 -5 11 -18 25 -30 44 -38 64 -23 22 16 -23 22 -47 29
-47 14z"/>
<path d="M2360 4290 c0 -5 -7 -10 -17 -10 -13 0 -11 -4 7 -20 13 -11 26 -20
31 -20 11 0 17 22 11 43 -5 18 -32 24 -32 7z"/>
<path d="M2215 4270 c-9 -10 -15 -26 -12 -35 7 -17 47 -21 47 -4 0 5 5 7 10 4
14 -9 12 29 -2 43 -16 16 -22 15 -43 -8z"/>
<path d="M2307 4234 c-4 -4 -4 -18 -1 -31 4 -16 2 -23 -6 -21 -7 2 -15 -3 -17
-9 -3 -9 6 -13 29 -13 50 0 64 13 52 47 -9 27 -42 42 -57 27z"/>
<path d="M2120 4221 c0 -5 7 -14 15 -21 8 -7 12 -16 9 -21 -3 -5 0 -9 5 -9 6
0 11 7 11 15 0 8 -5 15 -11 15 -8 0 -8 5 1 15 10 13 9 15 -9 15 -11 0 -21 -4
-21 -9z"/>
<path d="M2012 4184 c-12 -8 -22 -19 -22 -25 0 -10 35 7 58 29 21 19 -8 16
-36 -4z"/>
<path d="M2350 4130 c0 -19 3 -21 12 -12 9 9 9 15 0 24 -9 9 -12 7 -12 -12z"/>
<path d="M1990 4112 c0 -14 11 -21 26 -15 21 8 17 23 -6 23 -11 0 -20 -4 -20
-8z"/>
<path d="M2280 4108 c0 -14 30 -22 41 -11 7 7 2 12 -15 15 -14 3 -26 1 -26 -4z"/>
<path d="M1052 4373 l2 -168 3 162 c3 158 4 162 26 166 19 4 18 4 -5 6 l-28 1
2 -167z"/>
<path d="M1200 4353 c-91 -231 -97 -263 -54 -263 20 0 25 4 20 16 -3 9 -6 22
-6 30 0 8 -6 11 -17 7 -15 -6 -15 -2 3 28 12 19 33 72 48 117 15 45 31 82 36
82 5 0 7 11 4 24 -2 13 2 29 10 35 19 16 76 -5 76 -29 0 -10 6 -21 13 -23 10
-4 10 -6 0 -6 -7 -1 -13 -13 -13 -27 0 -21 3 -24 14 -15 19 16 26 -26 25 -143
0 -70 -3 -85 -10 -66 -8 19 -12 21 -19 11 -6 -11 -9 -10 -13 5 -4 17 -5 16 -6
-3 -1 -17 -6 -21 -26 -17 -14 2 -25 0 -25 -6 0 -6 -4 -9 -9 -5 -5 3 -12 1 -16
-5 -4 -6 22 -10 72 -10 l78 0 -7 147 c-4 82 -10 153 -12 160 -5 12 -64 45
-103 57 -19 6 -25 -3 -63 -101z"/>
<path d="M1012 4290 c0 -19 2 -27 5 -17 2 9 2 25 0 35 -3 9 -5 1 -5 -18z"/>
<path d="M1013 4200 c0 -30 2 -43 4 -27 2 15 2 39 0 55 -2 15 -4 2 -4 -28z"/>
<path d="M349 4219 l-24 -20 25 7 c13 4 30 13 38 20 23 23 -12 17 -39 -7z"/>
<path d="M286 4181 c6 -27 4 -28 -22 -23 -24 4 -25 6 -11 17 23 16 21 25 -3
25 -21 0 -21 -1 -23 -47 -1 -26 2 -28 34 -25 44 5 52 10 46 33 -3 10 -1 22 5
25 6 4 5 10 -3 15 -24 15 -29 10 -23 -20z"/>
<path d="M1380 4006 c0 -7 67 -46 79 -46 23 0 10 17 -27 33 -39 17 -52 20 -52
13z"/>
<path d="M1440 3935 c-9 -10 -16 -12 -20 -5 -4 6 -13 4 -26 -6 -13 -11 -14
-14 -3 -11 20 6 39 -25 32 -52 -4 -16 1 -23 20 -30 14 -5 28 -15 32 -20 3 -6
11 -11 16 -11 6 0 7 5 3 12 -5 7 0 9 14 6 22 -6 32 13 32 65 0 20 -7 30 -25
37 -14 5 -25 14 -25 20 0 16 -36 12 -50 -5z m46 -49 c0 -15 -5 -21 -10 -16 -5
5 -6 16 -3 24 9 23 15 19 13 -8z"/>
<path d="M540 3905 c0 -8 7 -15 16 -15 8 0 13 -4 10 -9 -3 -5 1 -11 8 -14 12
-5 12 -11 3 -31 -7 -14 -18 -26 -24 -26 -7 0 -13 -4 -13 -10 0 -5 7 -7 15 -4
10 4 15 0 15 -14 0 -11 8 -23 18 -27 15 -6 14 -8 -5 -16 -14 -5 -23 -17 -23
-29 0 -24 8 -25 34 -5 18 14 19 19 7 50 -7 19 -9 41 -4 47 9 15 12 58 3 58 -3
0 -14 14 -23 30 -19 32 -37 39 -37 15z"/>
<path d="M495 3860 c3 -5 13 -10 21 -10 8 0 12 5 9 10 -3 6 -13 10 -21 10 -8
0 -12 -4 -9 -10z"/>
<path d="M233 3780 c0 -36 2 -50 4 -32 2 17 2 47 0 65 -2 17 -4 3 -4 -33z"/>
<path d="M1640 3817 c0 -1 4 -16 9 -34 8 -28 7 -32 -13 -37 -23 -6 -51 -50
-41 -66 8 -13 -21 -6 -41 10 -16 14 -16 13 -5 -9 7 -13 22 -26 32 -28 23 -6
25 -29 3 -37 -13 -5 -14 -9 -4 -21 7 -8 9 -15 4 -15 -5 0 -20 -3 -33 -7 -24
-6 -24 -5 -18 48 6 48 4 57 -18 84 l-25 30 6 -37 c12 -71 9 -98 -11 -98 -8 0
-15 -4 -15 -10 0 -5 7 -10 15 -10 8 0 15 -4 15 -10 0 -11 -87 -2 -110 12 -10
6 -3 8 22 4 21 -2 40 0 43 5 4 5 -8 9 -26 9 -39 0 -33 9 13 20 31 7 31 8 6 9
-36 1 -89 -25 -111 -55 l-18 -24 264 0 263 0 -1 40 c0 45 -14 55 -16 13 -1
-19 -3 -22 -6 -10 -3 13 -11 17 -25 13 -16 -4 -18 -2 -9 7 14 14 15 47 1 47
-9 0 -14 -34 -11 -71 2 -16 -27 -35 -37 -24 -3 3 -1 5 5 5 5 0 10 14 10 31 0
33 2 33 -99 13 -27 -5 -39 8 -18 21 6 4 5 13 -3 25 -9 16 -9 23 6 37 10 11 17
13 17 5 0 -7 5 -12 11 -12 7 0 8 7 4 18 -9 20 -13 46 -14 85 -1 15 -5 27 -11
27 -5 0 -10 -1 -10 -3z"/>
<path d="M1547 3794 c-4 -4 -2 -13 3 -19 7 -9 6 -16 -5 -25 -25 -21 -17 -32
10 -13 13 10 25 21 25 24 0 12 -26 40 -33 33z"/>
<path d="M526 3735 c-18 -37 -21 -75 -7 -75 23 0 39 13 34 27 -5 12 -7 12 -14
1 -7 -10 -9 -9 -9 5 0 9 9 26 20 37 24 24 24 26 6 33 -9 4 -20 -6 -30 -28z"/>
<path d="M2174 3751 c-23 -4 -55 -19 -72 -33 -18 -15 -45 -29 -61 -33 -16 -3
-48 -22 -71 -42 l-42 -37 6 -55 c6 -52 38 -121 56 -121 15 0 27 31 22 56 -2
13 -9 24 -14 24 -6 0 -7 -7 -4 -16 6 -14 4 -15 -10 -3 -28 23 0 145 30 133 14
-5 11 -26 -10 -78 -5 -14 -4 -17 5 -11 7 4 20 23 28 42 13 33 15 34 28 17 7
-11 17 -19 22 -20 21 -2 43 -18 43 -30 0 -11 -5 -12 -17 -6 -10 4 -24 8 -30 8
-22 -2 -15 -19 12 -30 24 -10 25 -12 11 -31 -16 -20 -16 -20 -34 3 -17 22 -18
22 -19 2 -1 -11 2 -18 8 -15 11 7 11 7 0 -32 -7 -23 -6 -35 3 -42 9 -7 26 5
63 44 44 47 48 55 32 60 -26 8 -24 20 7 40 20 13 23 19 13 31 -6 8 -17 13 -23
12 -6 -1 -27 2 -47 6 l-36 8 19 36 c10 20 18 42 18 49 0 14 38 43 57 43 7 0
13 -8 13 -17 0 -16 2 -16 18 3 20 24 43 24 95 1 37 -16 50 -37 22 -37 -8 0
-15 -4 -15 -10 0 -5 6 -7 13 -4 7 2 21 -2 32 -10 19 -15 18 -15 -12 -16 -18 0
-33 -4 -33 -10 0 -5 7 -7 15 -4 16 6 37 -11 48 -38 7 -19 32 -24 42 -9 3 5 1
12 -5 16 -7 4 -7 12 -1 23 6 10 6 23 0 34 -6 10 -5 19 1 23 5 3 10 1 10 -5 0
-6 16 -20 35 -31 19 -12 35 -25 35 -31 0 -5 -4 -6 -10 -3 -13 8 -13 -18 0 -31
13 -13 -13 -84 -36 -97 -10 -6 -26 -20 -35 -30 -16 -20 -16 -20 -38 2 -15 15
-29 19 -44 16 -15 -4 -28 0 -37 11 -13 14 -11 19 9 35 29 23 45 20 49 -9 2
-12 11 -22 20 -22 12 0 13 3 4 12 -7 7 -12 25 -12 41 0 27 -2 28 -32 22 -31
-7 -32 -6 -13 9 11 8 16 16 11 16 -7 0 -87 -21 -93 -25 -2 -1 6 -29 18 -63 17
-50 25 -62 51 -71 17 -6 42 -8 56 -4 22 5 24 3 20 -15 -6 -21 -6 -21 26 2 17
13 39 26 48 29 31 11 71 94 72 150 1 45 -2 53 -22 62 -12 5 -25 18 -28 27 -3
10 -11 18 -17 18 -7 0 -24 6 -39 14 -20 10 -28 11 -31 3 -3 -9 -9 -9 -23 1
-70 47 -104 55 -180 43z"/>
<path d="M607 3685 c-8 -8 -18 -11 -22 -7 -4 4 -5 -2 -3 -13 4 -23 48 -31 48
-8 0 8 5 11 10 8 12 -7 12 -3 4 19 -8 20 -18 20 -37 1z"/>
<path d="M1698 3676 c-23 -17 -23 -36 -1 -36 9 0 13 3 10 6 -3 4 -2 15 4 25
11 22 10 23 -13 5z"/>
<path d="M539 3644 c-4 -24 -8 -52 -15 -88 -5 -30 -4 -37 5 -31 7 4 11 16 8
26 -6 21 8 26 16 7 3 -7 3 10 0 37 -6 48 -12 69 -14 49z"/>
<path d="M1051 3593 c-1 -42 0 -43 32 -42 29 1 30 2 7 8 -19 5 -27 16 -31 41
-6 35 -6 35 -8 -7z"/>
<path d="M611 3603 c-9 -15 -12 -15 -19 -5 -7 11 -10 10 -16 -3 -9 -24 -8 -25
19 -25 19 0 23 -4 18 -17 -5 -12 -2 -15 10 -10 9 3 17 2 17 -4 0 -6 5 -7 10
-4 16 10 12 25 -7 25 -15 0 -13 4 7 20 20 16 22 20 8 20 -10 0 -18 5 -18 10 0
16 -18 11 -29 -7z"/>
<path d="M670 3525 c0 -16 16 -20 24 -6 3 5 15 7 26 4 11 -3 20 0 20 6 0 6
-16 11 -35 11 -24 0 -35 -5 -35 -15z"/>
<path d="M540 3520 c-1 -3 -4 -15 -5 -28 -1 -15 1 -20 7 -14 6 6 8 18 5 28 -3
11 -6 17 -7 14z"/>
<path d="M730 3481 c-8 -3 -15 -13 -15 -21 0 -8 -11 -17 -25 -21 l-25 -7 27
-1 c42 -2 61 9 47 25 -8 9 -8 14 -1 14 6 0 14 -5 17 -10 8 -13 56 -2 75 18 13
13 13 14 -5 7 -42 -15 -55 -17 -68 -7 -6 5 -19 7 -27 3z"/>
<path d="M632 3473 c-49 -6 -28 -23 30 -23 44 0 49 2 38 15 -7 8 -18 14 -24
13 -6 0 -26 -3 -44 -5z"/>
<path d="M520 3451 c0 -4 -12 -6 -27 -3 -26 5 -27 4 -10 -12 20 -20 47 -15 47
9 0 8 -2 15 -5 15 -3 0 -5 -4 -5 -9z"/>
<path d="M2005 3420 c-9 -18 -18 -59 -20 -93 -3 -34 -9 -76 -14 -94 -7 -25 -6
-33 6 -37 22 -9 35 3 27 26 -4 13 -2 18 4 14 5 -3 12 1 16 9 3 8 11 15 18 15
9 0 9 -3 0 -12 -21 -21 -13 -31 23 -25 28 5 41 1 65 -20 29 -24 40 -53 20 -53
-18 0 -100 42 -100 51 0 5 -7 9 -16 9 -12 0 -15 -7 -12 -24 6 -32 -6 -51 -34
-52 -68 -2 -79 -5 -72 -15 9 -15 96 -5 127 16 21 14 27 14 56 -1 18 -9 35 -22
38 -30 3 -8 9 -14 13 -14 8 0 54 111 48 114 -2 1 -16 7 -31 14 -31 13 -28 33
3 27 11 -2 20 0 20 6 0 5 -4 10 -10 10 -13 2 -20 3 -53 12 -22 6 -34 21 -53
62 -27 59 -44 70 -44 31 0 -14 -5 -28 -11 -31 -7 -5 -8 5 -3 32 4 21 11 40 15
41 12 5 11 29 -1 37 -5 3 -16 -8 -25 -25z m45 -90 c0 -6 12 -22 27 -36 33 -30
27 -37 -17 -21 -30 10 -35 16 -32 40 3 25 22 40 22 17z m-40 -55 c0 -8 -4 -17
-10 -20 -6 -4 -10 5 -10 20 0 15 4 24 10 20 6 -3 10 -12 10 -20z"/>
<path d="M2450 3411 c0 -5 -9 -11 -20 -14 -29 -7 -25 -27 6 -27 22 0 25 -3 20
-22 -3 -13 -6 -31 -6 -40 0 -10 -11 -20 -26 -24 -17 -4 -23 -11 -20 -21 11
-27 -3 -31 -51 -17 -34 10 -44 11 -35 2 13 -13 17 -32 4 -24 -4 2 -13 -4 -20
-14 -9 -14 -8 -21 4 -31 11 -9 18 -8 32 5 20 18 97 22 107 6 3 -5 12 -10 19
-10 9 0 13 25 15 85 2 91 -6 155 -20 155 -5 0 -9 -4 -9 -9z"/>
<path d="M2226 3373 c-6 -14 -9 -15 -15 -4 -13 21 -46 9 -49 -19 -4 -23 19
-50 42 -50 13 0 46 55 46 76 0 20 -16 18 -24 -3z"/>
<path d="M2242 3141 c-10 -6 -7 -10 13 -15 31 -8 54 2 34 15 -18 11 -30 11
-47 0z"/>
<path d="M2440 3070 c10 -35 2 -38 -34 -9 -14 11 -26 16 -26 11 0 -6 6 -13 13
-16 6 -3 -1 -4 -18 -3 -16 1 -35 8 -41 16 -9 11 -28 13 -90 8 -43 -4 -82 -11
-87 -16 -6 -6 14 -7 50 -4 34 3 75 1 95 -6 32 -11 168 -24 168 -17 0 2 -5 17
-11 35 -14 40 -30 41 -19 1z"/>
<path d="M747 3084 c-3 -3 -69 -6 -147 -6 l-141 0 -39 -39 c-22 -22 -48 -39
-59 -39 -11 0 -40 -9 -65 -20 -40 -17 -46 -23 -46 -50 0 -17 11 -53 25 -80 22
-43 30 -50 55 -50 30 0 36 10 54 103 4 15 8 38 11 51 8 37 73 94 116 101 52 9
75 -1 88 -36 6 -17 15 -28 21 -24 6 3 8 11 4 16 -3 6 4 19 17 30 25 22 88 26
108 7 11 -11 12 -10 6 1 -6 11 -4 13 9 8 10 -4 19 -7 22 -7 7 0 57 -105 59
-125 1 -11 3 -44 4 -72 l1 -53 33 0 c45 0 84 42 102 109 15 59 15 58 -67 81
-30 8 -53 21 -63 37 -26 39 -91 74 -108 57z m126 -107 c4 3 7 0 7 -8 0 -8 10
-25 21 -39 l21 -25 -6 30 c-6 28 -5 29 9 11 15 -19 14 -30 -6 -83 -16 -44 -37
-27 -44 37 -4 32 -13 64 -21 71 -8 6 -14 17 -14 23 0 6 7 3 14 -6 7 -10 16
-15 19 -11z m-488 1 c-37 -120 -48 -148 -61 -148 -8 0 -14 4 -14 9 0 5 -2 16
-5 23 -3 8 13 40 35 71 41 57 53 69 45 45z m-65 -31 c0 -7 -7 -22 -15 -33 -12
-16 -14 -17 -15 -2 0 23 11 48 21 48 5 0 9 -6 9 -13z"/>
<path d="M2006 3045 c-4 -12 6 -15 64 -15 44 0 70 4 70 11 0 7 -16 9 -49 4
-31 -4 -51 -3 -56 4 -9 15 -22 14 -29 -4z"/>
<path d="M427 2977 c-18 -27 -6 -57 22 -57 22 0 81 29 81 39 0 4 -8 15 -18 24
-27 24 -67 21 -85 -6z m53 -9 c0 -7 -11 -14 -25 -14 -24 -2 -32 6 -18 19 11
12 43 8 43 -5z"/>
<path d="M710 2975 c-20 -21 -16 -41 10 -44 72 -8 85 -6 88 17 2 13 -2 30 -9
38 -16 20 -66 14 -89 -11z m76 -6 c8 -14 -18 -31 -30 -19 -9 9 0 30 14 30 5 0
12 -5 16 -11z"/>
<path d="M540 2945 c-14 -16 -3 -20 19 -6 8 5 9 11 3 15 -5 3 -15 -1 -22 -9z"/>
<path d="M521 2862 c-21 -22 -48 -43 -61 -47 -20 -6 -22 -5 -15 23 4 22 2 31
-11 36 -13 5 -15 2 -10 -19 5 -21 1 -27 -26 -39 -30 -13 -10 -14 207 -15 161
0 232 3 216 10 -20 8 -22 14 -17 40 5 27 4 28 -9 15 -8 -8 -15 -23 -15 -34 0
-14 -7 -19 -30 -20 -22 0 -30 4 -30 16 0 25 -64 64 -115 70 -43 4 -48 2 -84
-36z m85 7 c5 -8 9 -7 14 1 5 8 16 10 26 6 16 -6 15 -8 -5 -28 -17 -15 -25
-18 -31 -9 -5 9 -9 8 -14 -6 -7 -16 -9 -16 -21 7 -7 14 -11 28 -9 32 7 12 32
10 40 -3z"/>
<path d="M798 2673 c-2 -5 -1 -233 2 -508 l5 -500 3 455 c2 250 6 473 10 495
l7 40 214 3 c118 2 222 7 230 12 10 6 -73 10 -226 10 -133 0 -243 -3 -245 -7z"/>
<path d="M1300 2670 c0 -5 6 -10 14 -10 11 0 14 -10 11 -37 -5 -37 -4 -37 7
-10 12 28 33 36 41 15 8 -23 15 -4 10 25 -5 24 -10 27 -44 27 -22 0 -39 -4
-39 -10z"/>
<path d="M1400 2671 c0 -6 4 -12 9 -16 5 -3 12 -19 16 -35 4 -17 13 -30 21
-30 17 0 17 1 4 36 -7 19 -7 30 1 40 9 11 6 14 -20 14 -17 0 -31 -4 -31 -9z"/>
<path d="M1514 2670 c22 -4 147 -8 279 -9 132 -1 248 -6 258 -11 24 -13 26
-76 26 -742 0 -438 -2 -528 -13 -528 -17 0 -17 0 1 -43 8 -20 15 -47 15 -59
l0 -23 -19 24 c-10 13 -26 47 -36 75 -25 70 -156 336 -166 336 -4 0 1 -17 11
-37 11 -21 32 -65 48 -98 16 -33 36 -73 45 -90 8 -16 22 -50 30 -75 9 -25 30
-79 47 -120 30 -69 49 -171 32 -169 -20 3 -25 -2 -12 -11 13 -9 13 -12 -3 -21
-16 -10 -17 -13 -4 -27 8 -10 15 -33 16 -52 7 -101 9 -94 -36 -115 -24 -11
-47 -31 -53 -46 -19 -45 -59 -80 -88 -77 -22 3 -30 13 -49 68 -13 36 -37 122
-54 192 -17 70 -36 131 -42 135 -7 3 -9 2 -4 -2 9 -10 -15 -47 -66 -103 -40
-42 -72 -53 -94 -31 -6 6 -57 12 -114 15 -128 5 -192 19 -271 58 -44 22 -66
40 -77 63 -9 18 -18 33 -21 33 -6 0 -98 -260 -111 -315 -6 -22 -13 -56 -17
-75 -7 -32 -11 -35 -45 -38 -46 -4 -61 7 -93 70 -27 53 -30 74 -11 81 9 3 9 9
-1 26 -17 29 -4 51 15 26 16 -22 17 -12 2 16 -5 11 -15 17 -21 13 -7 -4 -8 7
-3 37 5 24 7 89 5 144 -4 151 -3 155 13 223 8 34 12 60 7 57 -4 -3 -11 -17
-15 -32 -3 -15 -11 -30 -16 -34 -5 -3 -10 -141 -11 -323 l-2 -317 645 0 644 0
3 970 2 971 -307 -1 c-170 -1 -290 -5 -269 -9z m-355 -1580 c44 -30 159 -70
200 -70 13 0 21 -6 21 -17 0 -11 3 -14 8 -7 9 14 126 18 117 4 -4 -6 -11 -7
-17 -4 -7 5 -8 2 -3 -5 5 -10 30 -12 89 -9 79 4 82 6 126 46 25 23 48 42 53
42 4 0 7 -12 7 -27 -1 -36 2 -52 24 -141 10 -40 16 -75 13 -78 -26 -26 -598
-24 -746 3 -32 5 -33 7 -28 44 3 21 16 62 29 91 50 108 57 128 52 143 -9 22 6
18 55 -15z m903 -276 c-5 -39 -15 -49 -51 -52 -40 -3 -40 16 -1 58 35 37 56
35 52 -6z m-912 -14 c133 -15 414 -21 535 -10 118 10 154 5 129 -20 -17 -17
-740 -12 -791 5 -7 2 -13 14 -13 26 0 19 4 21 33 15 17 -4 66 -11 107 -16z"/>
<path d="M1550 2422 c0 -10 -7 -28 -16 -40 -19 -28 -16 -33 14 -25 17 4 21 10
16 29 -4 15 -2 24 5 24 16 0 13 17 -4 24 -10 3 -15 -1 -15 -12z"/>
<path d="M1260 2411 c0 -5 9 -11 20 -14 13 -3 20 0 20 9 0 8 -9 14 -20 14 -11
0 -20 -4 -20 -9z"/>
<path d="M1252 2370 c-9 -15 -10 -26 -2 -40 5 -10 10 -28 10 -39 0 -11 4 -22
9 -25 4 -3 6 5 4 17 -7 33 31 65 57 49 32 -20 33 -14 3 17 l-28 29 -18 -21
c-10 -12 -16 -16 -12 -10 3 7 2 20 -2 28 -7 12 -10 11 -21 -5z"/>
<path d="M1581 2368 c0 -10 -9 -18 -18 -19 -11 0 -13 -3 -5 -6 6 -2 12 -12 12
-21 0 -11 3 -13 11 -5 6 6 9 23 6 39 -2 16 -5 21 -6 12z"/>
<path d="M1500 2310 c0 -5 6 -10 14 -10 8 0 18 5 21 10 3 6 -3 10 -14 10 -12
0 -21 -4 -21 -10z"/>
<path d="M1590 2307 c0 -12 32 -88 36 -85 4 5 -20 76 -29 84 -4 4 -7 4 -7 1z"/>
<path d="M1335 2290 c-19 -7 -19 -7 4 -19 13 -7 21 -8 17 -3 -3 6 -1 12 6 14
7 3 8 7 3 10 -6 3 -19 2 -30 -2z"/>
<path d="M1536 2274 c-3 -9 -12 -14 -19 -11 -12 4 -28 -24 -53 -93 l-13 -35
19 25 c10 14 26 33 34 43 9 9 16 20 16 24 0 4 9 17 21 29 11 12 16 25 11 28
-6 3 -13 -1 -16 -10z"/>
<path d="M1320 2241 c0 -10 7 -32 15 -47 19 -37 19 -49 -1 -68 -21 -22 -33
-20 -27 4 3 11 0 20 -6 20 -5 0 -8 -7 -5 -15 4 -8 2 -15 -4 -15 -6 0 -13 6
-15 13 -4 8 -6 9 -6 0 -1 -15 27 -43 43 -43 22 0 44 34 51 78 5 34 3 42 -10
42 -9 0 -15 9 -15 25 0 14 -4 25 -10 25 -5 0 -10 -8 -10 -19z"/>
<path d="M1570 2140 c0 -5 7 -10 15 -10 8 0 15 5 15 10 0 6 -7 10 -15 10 -8 0
-15 -4 -15 -10z"/>
<path d="M1595 2050 c-10 -11 -15 -23 -11 -28 4 -4 13 1 20 11 17 22 36 22 36
0 0 -10 5 -25 10 -33 8 -11 9 -4 7 25 -5 47 -32 58 -62 25z"/>
<path d="M1701 2042 c6 -18 15 -35 20 -38 5 -3 4 7 -3 23 -17 41 -30 53 -17
15z"/>
<path d="M1240 2056 c0 -16 21 -56 30 -56 14 0 13 33 -2 48 -12 12 -28 16 -28
8z"/>
<path d="M1190 1993 c-11 -26 -19 -51 -17 -56 3 -11 57 75 57 92 0 26 -21 7
-40 -36z"/>
<path d="M1300 2038 c0 -18 38 -87 45 -80 4 4 5 -2 1 -14 -4 -14 0 -27 14 -39
11 -10 20 -24 20 -32 0 -8 4 -12 9 -8 6 3 4 17 -5 33 -7 15 -14 37 -14 50 0
12 -7 25 -15 28 -8 4 -15 12 -15 19 0 6 -9 20 -20 30 -11 10 -20 16 -20 13z"/>
<path d="M1500 2011 c0 -11 31 -24 39 -16 3 3 -1 10 -9 15 -19 12 -30 12 -30
1z"/>
<path d="M1486 1971 c-19 -7 -19 -8 2 -13 27 -8 29 -28 2 -35 -22 -6 -26 -18
-9 -28 6 -4 17 2 25 14 8 12 22 21 30 21 8 0 14 5 14 10 0 6 -7 10 -16 10 -10
0 -14 6 -10 15 6 16 -7 18 -38 6z"/>
<path d="M1239 1934 c-5 -15 -8 -29 -5 -31 2 -2 8 10 14 26 13 38 5 41 -9 5z"/>
<path d="M1600 1893 c13 -18 25 -33 27 -33 8 0 -17 38 -33 51 -11 9 -9 2 6
-18z"/>
<path d="M1071 1826 c-8 -14 -12 -29 -8 -32 7 -7 29 34 25 47 -2 6 -10 -1 -17
-15z"/>
<path d="M982 1791 c-6 -17 -9 -31 -6 -31 7 0 25 52 20 57 -2 2 -8 -10 -14
-26z"/>
<path d="M1362 1758 c3 -7 17 -19 31 -26 15 -7 27 -17 27 -22 0 -5 20 -32 45
-60 28 -31 42 -56 38 -65 -3 -9 10 -39 31 -70 20 -30 34 -55 31 -55 -4 0 6
-11 21 -24 l28 -23 -49 -22 c-35 -16 -46 -24 -37 -33 8 -8 18 -5 38 11 42 33
63 28 70 -19 4 -22 10 -37 15 -34 5 3 6 -1 3 -9 -3 -9 3 -16 16 -20 11 -3 19
-9 18 -14 -1 -4 4 -18 11 -31 7 -13 10 -30 7 -37 -2 -7 6 -21 20 -29 27 -19
27 -18 11 49 -8 30 -41 93 -82 157 -86 132 -173 269 -201 316 -12 20 -27 38
-33 40 -6 2 -11 10 -11 18 0 8 -10 14 -26 14 -16 0 -24 -5 -22 -12z"/>
<path d="M920 1632 c-23 -59 -49 -120 -56 -136 -8 -16 -12 -31 -9 -34 4 -5 65
123 65 137 0 4 11 36 26 70 14 35 23 65 21 67 -2 2 -23 -44 -47 -104z"/>
<path d="M1324 1721 c-10 -13 -42 -45 -70 -72 -48 -46 -52 -55 -69 -132 -10
-45 -33 -131 -51 -191 l-33 -109 34 -41 c18 -22 47 -49 64 -59 30 -18 31 -18
31 1 0 11 -8 23 -17 26 -15 6 -15 8 -3 17 11 7 7 8 -12 3 -24 -5 -28 -3 -28
15 0 12 -6 21 -15 21 -22 0 -18 38 12 120 3 8 5 25 4 38 -1 12 4 25 13 28 11
4 16 19 16 48 0 23 9 58 20 79 11 20 16 37 10 37 -5 0 -10 10 -10 22 0 13 24
44 66 83 38 35 65 68 62 76 -3 10 -10 7 -24 -10z"/>
<path d="M799 1590 c-2 -36 -1 -94 2 -130 l6 -65 3 60 c2 33 4 74 5 90 2 17
-1 48 -5 70 -6 38 -7 37 -11 -25z"/>
<path d="M1580 1607 c0 -2 15 -16 33 -33 l32 -29 -29 33 c-28 30 -36 37 -36
29z"/>
<path d="M1113 1556 c-6 -20 -7 -36 -2 -36 10 0 23 44 17 61 -2 6 -9 -5 -15
-25z"/>
<path d="M1650 1554 c0 -17 7 -37 15 -44 18 -15 18 -15 0 35 -14 40 -14 40
-15 9z"/>
<path d="M1832 1498 c5 -15 28 -23 28 -10 0 5 -7 13 -16 16 -10 4 -14 1 -12
-6z"/>
<path d="M1877 1474 c-8 -8 1 -24 14 -24 5 0 9 7 9 15 0 15 -12 20 -23 9z"/>
<path d="M1513 1436 c-4 -7 -17 -18 -29 -24 -11 -6 -29 -30 -39 -54 -10 -24
-20 -44 -21 -46 -1 -2 -20 8 -41 22 -21 14 -54 28 -73 32 -33 6 -32 5 15 -21
65 -35 82 -51 90 -83 7 -25 8 -24 19 19 12 47 68 134 92 143 16 6 19 26 4 26
-5 0 -13 -6 -17 -14z"/>
<path d="M859 1405 c-6 -26 0 -55 12 -55 10 0 10 14 0 50 -6 23 -8 23 -12 5z"/>
<path d="M1572 1337 c-6 -7 -9 -23 -5 -35 4 -18 8 -20 19 -11 9 8 11 16 4 29
-5 9 -6 20 -3 24 3 3 4 6 1 6 -3 0 -10 -6 -16 -13z"/>
<path d="M1510 1281 c0 -10 7 -21 15 -25 16 -6 19 3 9 28 -8 22 -24 20 -24 -3z"/>
<path d="M1462 1261 c-6 -17 -18 -31 -26 -31 -10 0 -16 -9 -16 -25 0 -34 -34
-100 -62 -119 -32 -22 -34 -12 -5 26 25 34 41 88 26 88 -5 0 -9 -6 -9 -12 -1
-15 -49 -68 -76 -84 -10 -6 -17 -15 -14 -20 4 -8 65 -33 82 -34 9 0 47 66 54
96 4 14 17 32 29 40 15 10 26 30 30 55 9 50 1 61 -13 20z"/>
<path d="M1340 1262 c0 -5 9 -17 20 -27 15 -14 20 -15 20 -4 0 8 -9 20 -20 27
-11 7 -20 8 -20 4z"/>
<path d="M1625 1251 c-8 -14 5 -62 16 -55 12 7 12 51 0 59 -5 3 -12 1 -16 -4z"/>
<path d="M1862 1248 c5 -15 28 -23 28 -10 0 5 -7 13 -16 16 -10 4 -14 1 -12
-6z"/>
<path d="M1547 1183 c-11 -10 13 -33 34 -33 12 0 19 7 19 20 0 14 -7 20 -23
20 -13 0 -27 -3 -30 -7z"/>
<path d="M1668 1166 c-26 -19 -22 -28 9 -24 17 2 29 10 31 21 4 20 -16 22 -40
3z"/>
<path d="M1461 1152 c-1 -7 -5 -10 -11 -7 -5 3 -10 1 -10 -5 0 -6 6 -13 14
-16 8 -3 17 -20 20 -39 5 -27 22 -45 41 -45 1 0 -5 17 -15 38 -9 20 -22 48
-28 62 -6 14 -11 19 -11 12z"/>
<path d="M1601 1086 c-6 -7 -9 -21 -5 -30 3 -9 1 -16 -6 -16 -6 0 -8 -4 -5
-10 3 -5 17 -10 30 -10 41 0 45 79 4 80 -4 0 -12 -6 -18 -14z"/>
<path d="M1952 1035 c6 -14 15 -25 20 -25 5 0 1 11 -8 25 -9 14 -18 25 -20 25
-2 0 2 -11 8 -25z"/>
<path d="M2006 925 c-9 -23 -8 -25 9 -25 17 0 19 9 6 28 -7 11 -10 10 -15 -3z"/>
<path d="M1066 413 c-12 -12 -5 -23 14 -23 11 0 20 4 20 9 0 11 -26 22 -34 14z"/>
<path d="M1477 414 c-13 -13 -7 -24 14 -24 11 0 19 5 17 12 -5 14 -22 21 -31
12z"/>
<path d="M2090 410 c0 -5 11 -10 25 -10 14 0 25 5 25 10 0 6 -11 10 -25 10
-14 0 -25 -4 -25 -10z"/>
<path d="M2150 408 c0 -4 32 -8 72 -8 39 0 69 2 66 5 -8 9 -138 11 -138 3z"/>
<path d="M2300 410 c0 -6 17 -10 37 -10 42 0 37 12 -7 17 -16 1 -30 -2 -30 -7z"/>
<path d="M2380 409 c0 -5 16 -9 35 -9 46 0 46 14 0 17 -19 1 -35 -3 -35 -8z"/>
<path d="M2460 409 c0 -5 19 -9 42 -9 23 0 39 3 36 6 -10 9 -78 12 -78 3z"/>
<path d="M2550 409 c0 -5 16 -9 35 -9 19 0 35 4 35 9 0 5 -16 9 -35 9 -19 0
-35 -4 -35 -9z"/>
<path d="M230 398 c0 -4 23 -8 51 -8 27 0 48 4 45 9 -7 11 -96 11 -96 -1z"/>
<path d="M640 398 c0 -4 56 -8 125 -8 69 0 125 4 125 8 0 5 -56 9 -125 9 -69
-1 -125 -4 -125 -9z"/>
<path d="M1123 398 c15 -10 137 -10 137 0 0 4 -34 7 -75 7 -41 1 -69 -3 -62
-7z"/>
<path d="M1530 399 c0 -10 269 -16 330 -8 25 3 43 7 40 9 -13 6 -370 6 -370
-1z"/>
<path d="M2160 371 c0 -15 28 -20 112 -19 61 1 75 4 71 16 -3 7 -8 9 -12 4 -6
-10 -144 -8 -161 3 -5 3 -10 2 -10 -4z"/>
<path d="M2090 360 c0 -5 9 -10 19 -10 11 0 23 5 26 10 4 6 -5 10 -19 10 -14
0 -26 -4 -26 -10z"/>
<path d="M2366 359 c3 -5 21 -9 41 -9 20 0 33 3 29 7 -11 11 -77 12 -70 2z"/>
<path d="M1062 343 c4 -21 33 -25 33 -3 0 8 -8 16 -18 18 -14 3 -18 -1 -15
-15z"/>
<path d="M1475 350 c-3 -6 1 -13 10 -16 21 -9 26 -2 10 13 -9 8 -16 9 -20 3z"/>
<path d="M230 338 c0 -5 14 -8 30 -8 17 0 30 4 30 9 0 5 -13 8 -30 7 -16 0
-30 -4 -30 -8z"/>
<path d="M300 338 c0 -9 141 -15 147 -5 5 8 -3 10 -84 11 -35 1 -63 -2 -63 -6z"/>
<path d="M646 340 c9 -8 69 -13 148 -11 73 2 28 13 -65 16 -50 2 -87 -1 -83
-5z"/>
<path d="M1560 340 c0 -5 11 -10 25 -10 14 0 25 5 25 10 0 6 -11 10 -25 10
-14 0 -25 -4 -25 -10z"/>
<path d="M1620 340 c0 -5 32 -9 70 -9 39 0 70 4 70 9 0 5 -31 9 -70 9 -38 -1
-70 -5 -70 -9z"/>
<path d="M2090 319 c0 -5 23 -9 52 -9 28 0 49 2 46 5 -9 9 -98 12 -98 4z"/>
<path d="M2200 319 c0 -5 23 -9 52 -9 28 0 49 2 47 5 -9 9 -99 13 -99 4z"/>
<path d="M1067 294 c-13 -13 -7 -24 14 -24 11 0 19 5 17 12 -5 14 -22 21 -31
12z"/>
<path d="M230 278 c0 -5 16 -8 36 -8 20 0 33 4 29 10 -7 11 -65 9 -65 -2z"/>
<path d="M310 279 c0 -5 28 -9 62 -9 34 0 58 3 55 7 -11 10 -117 12 -117 2z"/>
<path d="M640 281 c0 -11 85 -18 108 -9 22 8 19 9 -50 14 -32 2 -58 -1 -58 -5z"/>
<path d="M1118 279 c-8 -5 17 -9 60 -9 40 0 71 4 68 9 -7 11 -110 11 -128 0z"/>
<path d="M1065 230 c-7 -12 2 -30 16 -30 12 0 12 27 0 35 -5 3 -12 1 -16 -5z"/>
<path d="M230 221 c0 -11 69 -20 75 -10 3 3 -9 9 -26 13 -42 8 -49 8 -49 -3z"/>
<path d="M640 218 c0 -4 39 -8 87 -8 47 0 83 3 80 7 -10 9 -167 11 -167 1z"/>
<path d="M1110 220 c0 -10 80 -17 127 -12 61 7 34 18 -47 20 -44 0 -80 -3 -80
-8z"/>
<path d="M233 48 c-2 -5 6 -9 19 -9 78 -5 95 -5 113 2 23 9 21 9 -63 12 -35 1
-66 -1 -69 -5z"/>
<path d="M424 49 c-4 -6 -3 -6 78 -10 32 -2 60 0 63 3 4 4 -26 8 -65 10 -40 1
-74 0 -76 -3z"/>
<path d="M598 43 c12 -2 32 -2 45 0 12 2 2 4 -23 4 -25 0 -35 -2 -22 -4z"/>
</g>
</svg>
